# xmcd
#
# Track frame offsets:
#	150
#	7770
#	17598
#	34477
#	47245
#
# Disc length: 782 seconds
#
# Revision: 0
# Processed by: cddbd v1.5.1PL2 Copyright (c) Steve Scherf et al.
# Submitted via: dBpowerAMP V4.0
#
DISCID=32030c05
DTITLE=ds - ds
DYEAR=1900
DGENRE=Avantgarde
TTITLE0=Track01ds
TTITLE1=Track02ds
TTITLE2=Track03ds
TTITLE3=Track04ds
TTITLE4=Track05ds
EXTD=
EXTT0=
EXTT1=
EXTT2=
EXTT3=
EXTT4=
PLAYORDER=
